<svg xmlns="http://www.w3.org/2000/svg" width="400" height="340"><path fill="white" d="M297.00755250598723,275.91635871452263C287.45323253177077,287.90644695863864,259.3012318988081,287.7263485780178,242.85413896560655,291.94052946469606C226.40704603240502,296.1547103513743,210.59997414819716,305.3447339992535,198.32499490677802,301.2014440345923C186.05001566535887,297.05815406993116,178.76707461765355,277.23512052964446,169.20426351709165,267.0807896767292C159.64145241652975,256.9264588238139,145.5597298462332,251.47279708945737,140.94812830340658,240.2754589171008C136.33652676057994,229.0781207447442,137.2327334045968,211.59300714599198,141.5346542601318,199.89676064258975C145.8365751156668,188.20051413918753,157.07250231196227,178.7363138740704,166.75965343661653,170.0979798966874C176.4468045612708,161.45964591930442,187.49064903396433,150.6110491305136,199.65756100805734,148.06675677829193C211.82447298215035,145.52246442607026,225.33550707399448,151.00635348154526,239.76112528117454,154.83222578335727C254.1867434883546,158.65809808516929,276.1414479961826,160.1606948863903,286.2112702511377,171.0219905891641C296.2810925060928,181.88328629193788,298.380678435097,202.51760531244025,300.1800588109053,220C301.97943918671353,237.48239468755975,306.5618724802037,263.9262704704066,297.00755250598723,275.91635871452263" stroke="none" stroke-width="3"/></svg>